# xmcd
#
# Track frame offsets: 
#        150
#        15105
#        29065
#        43055
#        58815
#        73257
#        87655
#        102375
#        115252
#        130527
#        145822
#        159372
#        174902
#        189512
#        204025
#        219683
#        232848
#        247810
#        263233
#        277000
#        291930
#        304635
#        317728
#        332790
#
# Disc length: 4631 seconds
#
# Revision: 0
# Processed by: cddbd v1.5.2PL0 Copyright (c) Steve Scherf et al.
# Submitted via: ExactAudioCopy v0.99pb4
#
DISCID=5a121518
DTITLE=Louis ARMSTRONG - New Orleans in Chicago
DYEAR=1927
DGENRE=Blues
TTITLE0=Once In A While
TTITLE1=I'm Not Rought
TTITLE2=Hotter That That
TTITLE3=Savoy Blues
TTITLE4=Fireworks
TTITLE5=Skitter The Gutter
TTITLE6=A Monday Date
TTITLE7=Don't Jive Me
TTITLE8=West End Blues
TTITLE9=Sugar Foot Strut
TTITLE10=Two Deuces
TTITLE11=Squeeze Me
TTITLE12=Symphonic Raps
TTITLE13=Savoyager's Stomp
TTITLE14=Knee Drops
TTITLE15=No (Papa, No)
TTITLE16=Basin Street Blues
TTITLE17=No One Else But You
TTITLE18=Beau Koo Jack
TTITLE19=Save It Pretty Mama
TTITLE20=Weather Bird
TTITLE21=Muggles
TTITLE22=Hear Me Talkin' To Ya
TTITLE23=St. James' Infirmary
EXTD=
EXTT0=
EXTT1=
EXTT2=
EXTT3=
EXTT4=
EXTT5=
EXTT6=
EXTT7=
EXTT8=
EXTT9=
EXTT10=
EXTT11=
EXTT12=
EXTT13=
EXTT14=
EXTT15=
EXTT16=
EXTT17=
EXTT18=
EXTT19=
EXTT20=
EXTT21=
EXTT22=
EXTT23=
PLAYORDER=
